HIERARCHY
ROOT hip
{
  OFFSET 0.00112043 5.09927 -9.65472
  CHANNELS 6 Xposition Yposition Zposition Zrotation Xrotation Yrotation
  JOINT abdomen
  {
    OFFSET 0 -1.186 -1.5018
    CHANNELS 3 Zrotation Xrotation Yrotation
    JOINT abdomen2
    {
      OFFSET 0 9.964 0.2134
      CHANNELS 3 Zrotation Xrotation Yrotation
      JOINT chest
      {
        OFFSET 0 13.134 -3.2573
        CHANNELS 3 Zrotation Xrotation Yrotation
        JOINT neck
        {
          OFFSET 0 20.686 -1.6905
          CHANNELS 3 Zrotation Xrotation Yrotation
          JOINT head
          {
            OFFSET 0 7.238 -0.1237
            CHANNELS 3 Zrotation Xrotation Yrotation
            End Site
            {
              OFFSET 0 0 0
            }
          }
        }
        JOINT lCollar
        {
          OFFSET 1.7069 20.075 5.0056
          CHANNELS 3 Zrotation Xrotation Yrotation
          JOINT lShldr
          {
            OFFSET 13.6458 -0.047 -4.849
            CHANNELS 3 Zrotation Xrotation Yrotation
            JOINT lForeArm
            {
              OFFSET 28.3255 -0.9759 2.2888
              CHANNELS 3 Zrotation Xrotation Yrotation
              JOINT lHand
              {
                OFFSET 22.1583 -0.53 10.8316
                CHANNELS 3 Zrotation Xrotation Yrotation
                JOINT lThumb1
                {
                  OFFSET 0.786 0.112 2.5817
                  CHANNELS 3 Zrotation Xrotation Yrotation
                  JOINT lThumb2
                  {
                    OFFSET 0.3601 -0.878 4.2331
                    CHANNELS 3 Zrotation Xrotation Yrotation
                    JOINT lThumb2_End
                    {
                      OFFSET 1.8127 -1.216 2.2227
                      CHANNELS 3 Zrotation Xrotation Yrotation
                      End Site
                      {
                        OFFSET 0.0181 -0.0122 0.0222
                      }
                    }
                  }
                }
                JOINT lCarpal1
                {
                  OFFSET 0.9571 1.114 1.7695
                  CHANNELS 3 Zrotation Xrotation Yrotation
                  JOINT lIndex1
                  {
                    OFFSET 4.1246 0.487 4.1451
                    CHANNELS 3 Zrotation Xrotation Yrotation
                    JOINT lIndex2
                    {
                      OFFSET 3.4052 -1.454 2.7682
                      CHANNELS 3 Zrotation Xrotation Yrotation
                      JOINT lIndex2_End
                      {
                        OFFSET 1.4531 -1.795 1.2713
                        CHANNELS 3 Zrotation Xrotation Yrotation
                        End Site
                        {
                          OFFSET 0.0145 -0.0179 0.0127
                        }
                      }
                    }
                  }
                  JOINT lMid1
                  {
                    OFFSET 5.6954 0.21 2.1184
                    CHANNELS 3 Zrotation Xrotation Yrotation
                    JOINT lMid2
                    {
                      OFFSET 3.9766 -1.54 2.3863
                      CHANNELS 3 Zrotation Xrotation Yrotation
                      JOINT lMid2_End
                      {
                        OFFSET 1.4042 -1.926 1.125
                        CHANNELS 3 Zrotation Xrotation Yrotation
                        End Site
                        {
                          OFFSET 0.014 -0.0193 0.0113
                        }
                      }
                    }
                  }
                }
                JOINT lCarpal2
                {
                  OFFSET 2.0956 0.66 -0.3894
                  CHANNELS 3 Zrotation Xrotation Yrotation
                  JOINT lRing1
                  {
                    OFFSET 5.0395 -0.09 2.4971
                    CHANNELS 3 Zrotation Xrotation Yrotation
                    JOINT lRing2
                    {
                      OFFSET 3.7921 -1.552 1.4806
                      CHANNELS 3 Zrotation Xrotation Yrotation
                      JOINT lRing2_End
                      {
                        OFFSET 1.4655 -1.808 0.9609
                        CHANNELS 3 Zrotation Xrotation Yrotation
                        End Site
                        {
                          OFFSET 0.0147 -0.0181 0.0096
                        }
                      }
                    }
                  }
                  JOINT lPinky1
                  {
                    OFFSET 4.9141 -1.269 0.3591
                    CHANNELS 3 Zrotation Xrotation Yrotation
                    JOINT lPinky2
                    {
                      OFFSET 3.1477 -1.685 0.8462
                      CHANNELS 3 Zrotation Xrotation Yrotation
                      JOINT lPinky2_End
                      {
                        OFFSET 0.8055 -1.585 0.7955
                        CHANNELS 3 Zrotation Xrotation Yrotation
                        End Site
                        {
                          OFFSET 0.0081 -0.0158 0.008
                        }
                      }
                    }
                  }
                }
              }
            }
          }
        }
        JOINT rCollar
        {
          OFFSET -1.7069 20.075 5.0056
          CHANNELS 3 Zrotation Xrotation Yrotation
          JOINT rShldr
          {
            OFFSET -13.6458 -0.047 -4.849
            CHANNELS 3 Zrotation Xrotation Yrotation
            JOINT rForeArm
            {
              OFFSET -28.3255 -0.9759 2.2888
              CHANNELS 3 Zrotation Xrotation Yrotation
              JOINT rHand
              {
                OFFSET -22.1583 -0.53 10.8316
                CHANNELS 3 Zrotation Xrotation Yrotation
                JOINT rThumb1
                {
                  OFFSET -0.786 0.112 2.5817
                  CHANNELS 3 Zrotation Xrotation Yrotation
                  JOINT rThumb2
                  {
                    OFFSET -0.3601 -0.878 4.2331
                    CHANNELS 3 Zrotation Xrotation Yrotation
                    JOINT rThumb2_End
                    {
                      OFFSET -1.8127 -1.216 2.2227
                      CHANNELS 3 Zrotation Xrotation Yrotation
                      End Site
                      {
                        OFFSET -0.0181 -0.0122 0.0222
                      }
                    }
                  }
                }
                JOINT rCarpal1
                {
                  OFFSET -0.9571 1.114 1.7695
                  CHANNELS 3 Zrotation Xrotation Yrotation
                  JOINT rIndex1
                  {
                    OFFSET -4.1246 0.487 4.1451
                    CHANNELS 3 Zrotation Xrotation Yrotation
                    JOINT rIndex2
                    {
                      OFFSET -3.4052 -1.454 2.7682
                      CHANNELS 3 Zrotation Xrotation Yrotation
                      JOINT rIndex2_End
                      {
                        OFFSET -1.4531 -1.795 1.2713
                        CHANNELS 3 Zrotation Xrotation Yrotation
                        End Site
                        {
                          OFFSET -0.0145 -0.018 0.0127
                        }
                      }
                    }
                  }
                  JOINT rMid1
                  {
                    OFFSET -5.6954 0.21 2.1184
                    CHANNELS 3 Zrotation Xrotation Yrotation
                    JOINT rMid2
                    {
                      OFFSET -3.9766 -1.54 2.3863
                      CHANNELS 3 Zrotation Xrotation Yrotation
                      JOINT rMid2_End
                      {
                        OFFSET -1.4042 -1.926 1.125
                        CHANNELS 3 Zrotation Xrotation Yrotation
                        End Site
                        {
                          OFFSET -0.014 -0.0193 0.0113
                        }
                      }
                    }
                  }
                }
                JOINT rCarpal2
                {
                  OFFSET -2.0956 0.66 -0.3894
                  CHANNELS 3 Zrotation Xrotation Yrotation
                  JOINT rRing1
                  {
                    OFFSET -5.0395 -0.09 2.4971
                    CHANNELS 3 Zrotation Xrotation Yrotation
                    JOINT rRing2
                    {
                      OFFSET -3.7921 -1.552 1.4806
                      CHANNELS 3 Zrotation Xrotation Yrotation
                      JOINT rRing2_End
                      {
                        OFFSET -1.4655 -1.808 0.9609
                        CHANNELS 3 Zrotation Xrotation Yrotation
                        End Site
                        {
                          OFFSET -0.0147 -0.0181 0.0096
                        }
                      }
                    }
                  }
                  JOINT rPinky1
                  {
                    OFFSET -4.9141 -1.269 0.3592
                    CHANNELS 3 Zrotation Xrotation Yrotation
                    JOINT rPinky2
                    {
                      OFFSET -3.1477 -1.685 0.8462
                      CHANNELS 3 Zrotation Xrotation Yrotation
                      JOINT rPinky2_End
                      {
                        OFFSET -0.8055 -1.585 0.7955
                        CHANNELS 3 Zrotation Xrotation Yrotation
                        End Site
                        {
                          OFFSET -0.0081 -0.0158 0.008
                        }
                      }
                    }
                  }
                }
              }
            }
          }
        }
      }
    }
  }
  JOINT lThigh
  {
    OFFSET 8.367 -8.2066 0.5982
    CHANNELS 3 Zrotation Xrotation Yrotation
    JOINT lShin
    {
      OFFSET 2.1923 -43.463 -0.4932
      CHANNELS 3 Zrotation Xrotation Yrotation
      JOINT lFoot
      {
        OFFSET 0.7333 -45.8593 -2.6451
        CHANNELS 3 Zrotation Xrotation Yrotation
        End Site
        {
          OFFSET 2.6618 -4.2699 12.3931
        }
      }
    }
  }
  JOINT rThigh
  {
    OFFSET -8.367 -8.2066 0.5982
    CHANNELS 3 Zrotation Xrotation Yrotation
    JOINT rShin
    {
      OFFSET -2.1923 -43.463 -0.4931
      CHANNELS 3 Zrotation Xrotation Yrotation
      JOINT rFoot
      {
        OFFSET -0.7333 -45.8593 -2.6451
        CHANNELS 3 Zrotation Xrotation Yrotation
        End Site
        {
          OFFSET -2.6618 -4.2699 12.3931
        }
      }
    }
  }
}
MOTION
Frames:	4
Frame Time:	0.0333333
-0.653598 32.3443 -43.7071 -0.00102351 -35.8013 179.998 -0.0062269 -2.1428 0.146396 -0.00697776 -4.28559 0.292867 -0.00697784 -4.2856 0.292867 3.8128e-006 30.5962 -8.25616e-006 14.8772 5.71917 -1.52953 -24.9971 26.7979 -27.715 -41.6455 -7.50309 -13.7667 3.82012 -4.24524 -16.1338 -14.7492 5.72981 -4.51293 -8.82107e-016 -3.18055e-015 4.22417e-016 6.95746e-016 0 4.47266e-016 2.77056e-015 -3.18055e-015 -1.01877e-015 -9.93923e-016 -3.18055e-015 5.71506e-016 -1.67725e-015 3.18055e-015 5.889e-015 -2.21148e-015 -3.18055e-015 -5.71506e-016 1.67725e-015 3.18055e-015 -7.95139e-016 -1.67725e-015 3.18055e-015 5.889e-015 -2.21148e-015 -3.18055e-015 -5.71506e-016 1.67725e-015 3.18055e-015 -7.95139e-016 -9.93923e-016 -3.18055e-015 5.71506e-016 -1.67725e-015 3.18055e-015 5.889e-015 -2.21148e-015 -3.18055e-015 -5.71506e-016 1.67725e-015 3.18055e-015 -7.95139e-016 -1.67725e-015 3.18055e-015 5.889e-015 -2.21148e-015 -3.18055e-015 -5.71506e-016 1.67725e-015 3.18055e-015 -7.95139e-016 24.4608 26.4162 26.0267 41.0785 -7.77121 14.1312 -5.66694 -4.7871 14.347 16.3786 5.47625 6.35816 -8.44835e-016 6.36111e-015 -9.93923e-017 4.05737e-007 1.05239e-006 -1.23745e-006 -4.05737e-007 -1.05239e-006 1.23745e-006 -2.98177e-016 6.36111e-015 -8.94531e-016 -5.66536e-015 3.18055e-015 5.01931e-015 4.05737e-007 1.05239e-006 -1.23745e-006 -4.05737e-007 -1.05239e-006 1.23745e-006 -5.66536e-015 3.18055e-015 5.01931e-015 4.05737e-007 1.05239e-006 -1.23745e-006 -4.05737e-007 -1.05239e-006 1.23745e-006 -2.98177e-016 6.36111e-015 -8.94531e-016 -5.66536e-015 3.18055e-015 5.01931e-015 4.05737e-007 1.05239e-006 -1.23745e-006 -4.05737e-007 -1.05239e-006 1.23745e-006 -5.66536e-015 3.18055e-015 5.01931e-015 4.05737e-007 1.05239e-006 -1.23745e-006 -4.05737e-007 -1.05239e-006 1.23745e-006 73.7678 -48.2334 93.821 126.101 32.9456 -144.345 -46.8685 51.3627 35.0813 -73.7538 -48.2352 -93.8155 -126.104 32.9466 144.341 46.8615 51.3573 -35.0598 
-0.653628 32.5079 -43.4459 -0.00101422 -35.5538 179.998 -0.00288197 -1.78841 0.144565 -0.00124762 -3.57683 0.289252 -0.00124766 -3.57684 0.289252 -1.91902e-006 30.0908 4.28845e-006 14.6273 5.62777 -1.49155 -24.2251 25.4781 -27.8805 -42.1517 -7.27628 -13.9081 3.68069 -4.17344 -16.8059 -14.3315 5.55184 -4.29063 -4.14963e-015 1.90833e-014 7.45443e-017 -2.9445e-015 9.54166e-015 -1.11816e-015 -3.05631e-015 2.22639e-014 -1.01877e-015 -2.08724e-015 3.18055e-015 2.23633e-016 -4.26145e-015 1.59028e-014 8.19987e-016 -5.23052e-015 9.54166e-015 -3.47873e-016 -8.24956e-015 2.22639e-014 -2.48481e-017 -4.26145e-015 1.59028e-014 8.19987e-016 -5.23052e-015 9.54166e-015 -3.47873e-016 -8.24956e-015 2.22639e-014 -2.48481e-017 -2.08724e-015 3.18055e-015 2.23633e-016 -4.26145e-015 1.59028e-014 8.19987e-016 -5.23052e-015 9.54166e-015 -3.47873e-016 -8.24956e-015 2.22639e-014 -2.48481e-017 -4.26145e-015 1.59028e-014 8.19987e-016 -5.23052e-015 9.54166e-015 -3.47873e-016 -8.24956e-015 2.22639e-014 -2.48481e-017 23.7001 25.1244 26.2755 41.6255 -7.5303 14.2949 -5.51522 -4.73431 15.0509 15.8779 5.30337 6.0452 -2.66545e-007 3.52587e-006 8.77185e-007 2.66545e-007 -3.52587e-006 -8.77185e-007 -6.70421e-007 2.46982e-006 2.11209e-006 -2.08724e-015 6.36111e-015 -2.18663e-015 -2.66545e-007 3.52587e-006 8.77185e-007 2.66545e-007 -3.52587e-006 -8.77185e-007 -6.70421e-007 2.46982e-006 2.11209e-006 -2.66545e-007 3.52587e-006 8.77185e-007 2.66545e-007 -3.52587e-006 -8.77185e-007 -6.70421e-007 2.46982e-006 2.11209e-006 -2.08724e-015 6.36111e-015 -2.18663e-015 -2.66545e-007 3.52587e-006 8.77185e-007 2.66545e-007 -3.52587e-006 -8.77185e-007 -6.70421e-007 2.46982e-006 2.11209e-006 -2.66545e-007 3.52587e-006 8.77185e-007 2.66545e-007 -3.52587e-006 -8.77185e-007 -6.70421e-007 2.46982e-006 2.11209e-006 73.9009 -48.4007 93.9438 126.094 32.9472 -144.314 -47.1995 51.5833 35.4977 -73.8878 -48.4022 -93.9388 -126.096 32.9482 144.31 47.1925 51.5782 -35.4773 
-0.653656 32.6548 -43.2105 -0.00100593 -35.3315 179.998 9.25522e-005 -1.46908 0.142884 0.00385336 -2.93816 0.285911 0.00385339 -2.93815 0.285911 -1.19627e-006 29.6359 2.43907e-006 14.4026 5.54544 -1.45778 -23.539 24.2844 -28.009 -42.6067 -7.07089 -14.0335 3.55587 -4.10726 -17.4109 -13.9549 5.39314 -4.08943 -4.00631e-007 1.04256e-006 1.24666e-006 1.73937e-015 0 7.95139e-016 8.69683e-017 -6.36111e-015 -1.49089e-015 1.10574e-015 -3.18055e-015 -1.68967e-015 -4.00631e-007 1.04256e-006 1.24666e-006 -7.45443e-016 0 4.72114e-016 2.04997e-015 -6.36111e-015 -5.46658e-016 -4.00631e-007 1.04256e-006 1.24666e-006 -7.45443e-016 0 4.72114e-016 2.04997e-015 -6.36111e-015 -5.46658e-016 1.10574e-015 -3.18055e-015 -1.68967e-015 -4.00631e-007 1.04256e-006 1.24666e-006 -7.45443e-016 0 4.72114e-016 2.04997e-015 -6.36111e-015 -5.46658e-016 -4.00631e-007 1.04256e-006 1.24666e-006 -7.45443e-016 0 4.72114e-016 2.04997e-015 -6.36111e-015 -5.46658e-016 23.0255 23.9553 26.4794 42.1172 -7.3119 14.4401 -5.37914 -4.68504 15.6847 15.4266 5.14956 5.76213 3.97569e-016 3.18055e-015 2.48481e-015 4.0227e-007 1.05934e-006 -1.23255e-006 6.95746e-016 -9.54166e-015 -4.96962e-016 7.95139e-016 -6.36111e-015 1.93815e-015 -4.96962e-017 6.36111e-015 6.26172e-015 4.0227e-007 1.05934e-006 -1.23255e-006 8.94531e-016 -1.27222e-014 1.04362e-015 -4.96962e-017 6.36111e-015 6.26172e-015 4.0227e-007 1.05934e-006 -1.23255e-006 8.94531e-016 -1.27222e-014 1.04362e-015 7.95139e-016 -6.36111e-015 1.93815e-015 -4.96962e-017 6.36111e-015 6.26172e-015 4.0227e-007 1.05934e-006 -1.23255e-006 8.94531e-016 -1.27222e-014 1.04362e-015 -4.96962e-017 6.36111e-015 6.26172e-015 4.0227e-007 1.05934e-006 -1.23255e-006 8.94531e-016 -1.27222e-014 1.04362e-015 74.0221 -48.5507 94.0554 126.086 32.9484 -144.287 -47.5009 51.7807 35.8759 -74.0092 -48.5522 -94.0504 -126.089 32.9496 144.283 47.4939 51.776 -35.8566 
-0.653685 32.8015 -42.9747 -0.000997677 -35.1092 179.998 0.00304229 -1.14943 0.141172 0.0089204 -2.29884 0.28249 0.00892034 -2.29886 0.28249 -8.50877e-007 29.1806 1.40801e-006 14.178 5.46298 -1.42433 -22.8606 23.0866 -28.1211 -43.0613 -6.86444 -14.1572 3.43169 -4.03973 -18.0161 -13.5777 5.23574 -3.8872 1.45361e-015 9.54166e-015 -2.48481e-017 -3.9855e-007 1.04655e-006 1.24397e-006 2.60905e-015 3.18055e-015 6.83322e-016 1.22998e-015 3.18055e-015 2.98177e-016 -8.32411e-016 3.18055e-015 3.15571e-015 -3.9855e-007 1.04655e-006 1.24397e-006 1.21756e-015 -3.18055e-015 9.93923e-017 -8.32411e-016 3.18055e-015 3.15571e-015 -3.9855e-007 1.04655e-006 1.24397e-006 1.21756e-015 -3.18055e-015 9.93923e-017 1.22998e-015 3.18055e-015 2.98177e-016 -8.32411e-016 3.18055e-015 3.15571e-015 -3.9855e-007 1.04655e-006 1.24397e-006 1.21756e-015 -3.18055e-015 9.93923e-017 -8.32411e-016 3.18055e-015 3.15571e-015 -3.9855e-007 1.04655e-006 1.24397e-006 1.21756e-015 -3.18055e-015 9.93923e-017 22.36 22.7814 26.667 42.6082 -7.09221 14.5834 -5.24356 -4.63424 16.3186 14.9745 4.99794 5.47777 5.96354e-016 9.54166e-015 -2.03754e-015 4.00761e-007 1.06262e-006 -1.23014e-006 3.84972e-006 -2.66566e-006 2.57297e-006 3.47873e-016 9.54166e-015 -1.68967e-015 -3.47873e-015 9.54166e-015 1.44119e-015 4.00761e-007 1.06262e-006 -1.23014e-006 3.84972e-006 -2.66566e-006 2.57297e-006 -3.47873e-015 9.54166e-015 1.44119e-015 4.00761e-007 1.06262e-006 -1.23014e-006 3.84972e-006 -2.66566e-006 2.57297e-006 3.47873e-016 9.54166e-015 -1.68967e-015 -3.47873e-015 9.54166e-015 1.44119e-015 4.00761e-007 1.06262e-006 -1.23014e-006 3.84972e-006 -2.66566e-006 2.57297e-006 -3.47873e-015 9.54166e-015 1.44119e-015 4.00761e-007 1.06262e-006 -1.23014e-006 3.84972e-006 -2.66566e-006 2.57297e-006 74.1438 -48.7008 94.1675 126.079 32.9497 -144.26 -47.806 51.9771 36.2576 -74.1322 -48.7017 -94.1633 -126.081 32.9507 144.256 47.7989 51.9725 -36.2392 
